<svg xmlns="http://www.w3.org/2000/svg" width="451.3383" height="60.1018" viewBox="0 0 451.3383 60.1018"><defs><style>.a,.c{fill:#726eff;}.b,.d{fill:#37465b;}.b,.c{fill-rule:evenodd;}</style></defs><path class="a" d="M240.807,12.89l-7.8937,47.2121h8.6931l4.4464-26.6286a5.1688,5.1688,0,0,1,4.9461-4.1967H274.83l1.4488-8.743H252.4477a14.6321,14.6321,0,0,0-4.3465.7L249.5,12.89a5.22,5.22,0,0,1,4.946-4.1967H286.82L288.269,0H255.895c-7.1443,0-13.8889,5.7954-15.0879,12.89Z"/><path class="a" d="M295.1634,47.1622,303.0571,0H294.364L286.47,47.1622c-1.1991,7.1442,3.5971,12.94,10.7414,12.94h32.374l1.4489-8.743H298.6606A3.4714,3.4714,0,0,1,295.1634,47.1622Z"/><path class="a" d="M342.7253,12.89,336.98,47.1622c-1.199,7.1442,3.5971,12.94,10.7414,12.94h32.374l1.4988-8.743H349.17a3.4714,3.4714,0,0,1-3.4972-4.1966l2.2982-13.689a5.1577,5.1577,0,0,1,4.896-4.1967H376.698l1.4489-8.743H354.316a14.3124,14.3124,0,0,0-4.2966.7l1.3989-8.3433a5.1655,5.1655,0,0,1,4.8961-4.1967h32.424L390.1873,0H357.7632a15.8632,15.8632,0,0,0-15.0379,12.89Z"/><path class="a" d="M418.4146,29.876,408.023,0h-9.7922l11.8405,34.0227.1.3-.45.4-9.7422,11.241-12.29,14.1387h10.6414l17.4361-20.0339a10.4558,10.4558,0,0,0,3.1474-5.7454,7.8637,7.8637,0,0,0-.5-4.4465Z"/><path class="a" d="M428.9062,25.7793l.45-.45,9.7422-11.191L451.3383,0H440.6968L423.3107,20.0339a10.6,10.6,0,0,0-3.1475,5.7454,7.6926,7.6926,0,0,0,.5,4.3965l10.4417,29.926h9.7921l-11.89-34.0727Z"/><path class="b" d="M112.41,45.0139H88.1793a3.7744,3.7744,0,0,1-3.747-3.747v-.45l1.9485-11.5908,1.7985-10.7413v.35a3.742,3.742,0,0,1,3.747-3.747H112.41a14.963,14.963,0,1,1,0,29.926M112.41.1H82.4839a7.4839,7.4839,0,0,0-7.494,7.494L67.7957,50.46a7.0057,7.0057,0,0,0-.3,2.0484,7.516,7.516,0,0,0,7.494,7.494h37.42A29.951,29.951,0,0,0,112.41.1Z"/><path class="b" d="M25.18,25.7294C23.0815,21.8325,18.1854,16.187,7.494,15.5375a7.494,7.494,0,0,0,0,14.988c8.5431,1.5488,12.39,10.7914,13.9888,16.9864Z"/><path class="c" d="M37.52,52.5079,44.7641,9.4424A7.486,7.486,0,1,0,30.0259,7.5939L22.8317,50.46a7.0091,7.0091,0,0,0-.3,2.0484,7.494,7.494,0,0,0,14.988,0Z"/><path class="d" d="M47.9616,23.5811,46.0631,12.74l-3.9968,23.681L44.0147,47.312Z"/><path class="b" d="M68.4951,12.74l-3.9968,23.681,3.2474,18.0855v-.1a7.906,7.906,0,0,1-.25-1.8984,7.0057,7.0057,0,0,1,.3-2.0484l2.9976-17.9356.5495-3.8969Z"/><path class="c" d="M59.9519,52.5079,67.2461,9.4424a7.49,7.49,0,0,0,.2-1.8485,7.469,7.469,0,1,0-14.938,0L45.3137,50.46h-.05a9.1944,9.1944,0,0,0-.25,2.0484,7.469,7.469,0,1,0,14.938,0Z"/><path class="b" d="M163.0193,18.5351v0Z"/><path class="b" d="M198.0413,24.1306H180.2555l-1.199,1.249h16.9864a3.8527,3.8527,0,0,1,1.4488.25,7.9357,7.9357,0,0,1,1.6987,1.0492,9.83,9.83,0,0,1,2.9476,7.1442,11.1727,11.1727,0,0,1-11.191,11.1911H163.0193a3.7,3.7,0,0,1-3.747-3.6971v-.5l1.9485-11.5407,1.7985-10.7414a3.7039,3.7039,0,0,1,3.6971-3.3973h30.9252a4.5057,4.5057,0,0,1,.4,8.9928m15.2877.9493A14.9724,14.9724,0,0,0,202.138.2H157.3239a7.484,7.484,0,0,0-7.494,7.494L142.6357,50.51a6.44,6.44,0,0,0-.3,1.9984,7.484,7.484,0,0,0,7.494,7.494H194.644A22.4342,22.4342,0,0,0,213.2791,25.08Z"/></svg>